<!DOCTYPE svg PUBLIC "-//W3C//DTD SVG 1.1//EN" "http://www.w3.org/Graphics/SVG/1.1/DTD/svg11.dtd">
<!-- Uploaded to: SVG Repo, www.svgrepo.com, Transformed by: SVG Repo Mixer Tools -->
<svg width="800px" height="800px" viewBox="0 0 1024 1024" xmlns="http://www.w3.org/2000/svg" fill="#ffffff" stroke="#ffffff">
<g id="SVGRepo_bgCarrier" stroke-width="0"/>
<g id="SVGRepo_tracerCarrier" stroke-linecap="round" stroke-linejoin="round"/>
<g id="SVGRepo_iconCarrier">
<path fill="#ffffff" d="M768 192a192 192 0 1 1-8 383.808A256.128 256.128 0 0 1 512 768H320A256 256 0 0 1 64 512V160a32 32 0 0 1 32-32h640a32 32 0 0 1 32 32v32zm0 64v256a128 128 0 1 0 0-256zM96 832h640a32 32 0 1 1 0 64H96a32 32 0 1 1 0-64zm32-640v320a192 192 0 0 0 192 192h192a192 192 0 0 0 192-192V192H128z"/>
</g>
</svg>